<svg xmlns="http://www.w3.org/2000/svg" viewBox="0 0 640 360" preserveAspectRatio="xMidYMid slice">
  <defs>
    <linearGradient id="g3" x1="0" y1="0" x2="1" y2="1">
      <stop offset="0" stop-color="#0b0d12"/>
      <stop offset="1" stop-color="#0d2a2a"/>
    </linearGradient>
  </defs>
  <rect width="640" height="360" fill="url(#g3)"/>
  <g transform="translate(340,190)">
    <circle r="90" fill="none" stroke="#242938" stroke-width="0.5"/>
    <path d="M 0 0 L 90 0 A 90 90 0 0 1 27.8 85.6 Z" fill="#7cc4ff" opacity="0.75"/>
    <path d="M 0 0 L 27.8 85.6 A 90 90 0 0 1 -72.8 53.1 Z" fill="#a78bfa" opacity="0.75"/>
    <path d="M 0 0 L -72.8 53.1 A 90 90 0 0 1 -85.6 -27.8 Z" fill="#ffb070" opacity="0.75"/>
    <path d="M 0 0 L -85.6 -27.8 A 90 90 0 0 1 0 -90 Z" fill="#55ddaa" opacity="0.75"/>
    <path d="M 0 0 L 0 -90 A 90 90 0 0 1 90 0 Z" fill="#ff6b9d" opacity="0.75"/>
    <circle r="40" fill="#161a24"/>
    <text text-anchor="middle" y="-3" font-family="'Inter', sans-serif" font-size="12" fill="#9aa3b2">Monthly</text>
    <text text-anchor="middle" y="14" font-family="'Inter', sans-serif" font-size="15" fill="#e6e9ef" font-weight="700">$127</text>
  </g>
  <text x="60" y="70" font-family="'Inter', sans-serif" font-size="14" fill="#9aa3b2" font-weight="500">TAMUHack 2025 · GPT-4o-mini</text>
  <text x="60" y="95" font-family="'Inter', sans-serif" font-size="22" fill="#e6e9ef" font-weight="700">BreakFree</text>
  <text x="60" y="130" font-family="'Inter', sans-serif" font-size="13" fill="#9aa3b2">Subscription analyzer with</text>
  <text x="60" y="148" font-family="'Inter', sans-serif" font-size="13" fill="#9aa3b2">AI-powered advice</text>
</svg>
