<svg xmlns="http://www.w3.org/2000/svg" viewBox="0 0 640 360" preserveAspectRatio="xMidYMid slice">
  <defs>
    <linearGradient id="gp" x1="0" y1="0" x2="1" y2="1">
      <stop offset="0" stop-color="#0b1a0f"/>
      <stop offset="1" stop-color="#0f2a18"/>
    </linearGradient>
  </defs>
  <rect width="640" height="360" fill="url(#gp)"/>
  <g stroke="#55ddaa" stroke-width="1.5" fill="none" opacity="0.85">
    <path d="M 80 120 L 200 120 L 220 140 L 320 140"/>
    <path d="M 320 140 L 340 160 L 480 160"/>
    <path d="M 80 200 L 160 200 L 180 220 L 300 220 L 320 200 L 420 200"/>
    <path d="M 120 280 L 260 280 L 280 260 L 400 260 L 420 240 L 520 240"/>
    <path d="M 480 160 L 500 180 L 500 280"/>
    <path d="M 420 200 L 440 180"/>
  </g>
  <g fill="#55ddaa">
    <circle cx="80" cy="120" r="4"/><circle cx="80" cy="200" r="4"/><circle cx="120" cy="280" r="4"/>
    <circle cx="200" cy="120" r="3"/><circle cx="160" cy="200" r="3"/><circle cx="260" cy="280" r="3"/>
    <circle cx="320" cy="140" r="3"/><circle cx="300" cy="220" r="3"/><circle cx="400" cy="260" r="3"/>
    <circle cx="480" cy="160" r="3"/><circle cx="420" cy="200" r="3"/><circle cx="520" cy="240" r="3"/>
    <circle cx="500" cy="280" r="4"/>
  </g>
  <g fill="#0f2a18" stroke="#55ddaa" stroke-width="1.2">
    <rect x="220" y="100" width="100" height="60" rx="3"/>
    <rect x="340" y="200" width="80" height="50" rx="3"/>
  </g>
  <g font-family="'JetBrains Mono', monospace" font-size="10" fill="#55ddaa" opacity="0.7">
    <text x="238" y="135">U1</text>
    <text x="355" y="230">U2</text>
  </g>
  <text x="60" y="70" font-family="'Inter', sans-serif" font-size="14" fill="#9aa3b2" font-weight="500">Hardware design · KiCad · writeup in progress</text>
  <text x="60" y="95" font-family="'Inter', sans-serif" font-size="22" fill="#e6e9ef" font-weight="700">PCB Design</text>
  <text x="60" y="335" font-family="'JetBrains Mono', monospace" font-size="11" fill="#6b7488">[placeholder — replace with board render]</text>
</svg>
