<svg xmlns="http://www.w3.org/2000/svg" viewBox="0 0 640 360" preserveAspectRatio="xMidYMid slice">
  <defs>
    <linearGradient id="g4" x1="0" y1="0" x2="1" y2="1">
      <stop offset="0" stop-color="#0b0d12"/>
      <stop offset="1" stop-color="#2a1a22"/>
    </linearGradient>
  </defs>
  <rect width="640" height="360" fill="url(#g4)"/>
  <g transform="translate(60,140)">
    <rect width="160" height="160" rx="10" fill="#161a24" stroke="#242938"/>
    <rect x="12" y="12" width="136" height="36" rx="4" fill="#242938"/>
    <text x="80" y="34" font-family="'Inter', sans-serif" font-size="12" fill="#7cc4ff" text-anchor="middle" font-weight="600">CUSTOMER</text>
    <rect x="12" y="60" width="60" height="60" rx="4" fill="#7cc4ff" opacity="0.2"/>
    <rect x="88" y="60" width="60" height="60" rx="4" fill="#a78bfa" opacity="0.2"/>
    <rect x="12" y="128" width="136" height="20" rx="4" fill="#242938"/>
  </g>
  <g transform="translate(240,140)">
    <rect width="160" height="160" rx="10" fill="#161a24" stroke="#242938"/>
    <rect x="12" y="12" width="136" height="36" rx="4" fill="#242938"/>
    <text x="80" y="34" font-family="'Inter', sans-serif" font-size="12" fill="#ffb070" text-anchor="middle" font-weight="600">CASHIER</text>
    <rect x="12" y="60" width="136" height="14" rx="3" fill="#2a3042"/>
    <rect x="12" y="80" width="100" height="14" rx="3" fill="#2a3042"/>
    <rect x="12" y="100" width="120" height="14" rx="3" fill="#2a3042"/>
    <rect x="12" y="128" width="60" height="20" rx="4" fill="#ffb070" opacity="0.3"/>
  </g>
  <g transform="translate(420,140)">
    <rect width="160" height="160" rx="10" fill="#161a24" stroke="#242938"/>
    <rect x="12" y="12" width="136" height="36" rx="4" fill="#242938"/>
    <text x="80" y="34" font-family="'Inter', sans-serif" font-size="12" fill="#a78bfa" text-anchor="middle" font-weight="600">MANAGER</text>
    <path d="M 12 130 L 40 100 L 68 115 L 96 80 L 124 95 L 148 70" fill="none" stroke="#a78bfa" stroke-width="2"/>
    <circle cx="40" cy="100" r="3" fill="#a78bfa"/>
    <circle cx="68" cy="115" r="3" fill="#a78bfa"/>
    <circle cx="96" cy="80" r="3" fill="#a78bfa"/>
    <circle cx="124" cy="95" r="3" fill="#a78bfa"/>
  </g>
  <text x="60" y="70" font-family="'Inter', sans-serif" font-size="14" fill="#9aa3b2" font-weight="500">CSCE 331 · Team project</text>
  <text x="60" y="95" font-family="'Inter', sans-serif" font-size="22" fill="#e6e9ef" font-weight="700">Boba Tea POS</text>
</svg>
