<svg xmlns="http://www.w3.org/2000/svg" viewBox="0 0 640 360" preserveAspectRatio="xMidYMid slice">
  <defs>
    <linearGradient id="g1" x1="0" y1="0" x2="1" y2="1">
      <stop offset="0" stop-color="#0b0d12"/>
      <stop offset="1" stop-color="#1a2440"/>
    </linearGradient>
    <pattern id="grid" width="40" height="40" patternUnits="userSpaceOnUse">
      <path d="M 40 0 L 0 0 0 40" fill="none" stroke="#2a3556" stroke-width="0.6"/>
    </pattern>
  </defs>
  <rect width="640" height="360" fill="url(#g1)"/>
  <rect width="640" height="360" fill="url(#grid)"/>
  <g font-family="'JetBrains Mono', monospace" fill="#7cc4ff">
    <rect x="60" y="140" width="80" height="80" rx="6" fill="none" stroke="#7cc4ff" stroke-width="1.5"/>
    <text x="100" y="185" font-size="11" text-anchor="middle">SOBOL</text>
    <line x1="140" y1="180" x2="180" y2="180" stroke="#7cc4ff" stroke-width="1.5" marker-end="url(#a)"/>
    <rect x="180" y="140" width="80" height="80" rx="6" fill="none" stroke="#7cc4ff" stroke-width="1.5"/>
    <text x="220" y="180" font-size="10" text-anchor="middle">InvCDF</text>
    <text x="220" y="195" font-size="10" text-anchor="middle">Z-S</text>
    <line x1="260" y1="180" x2="300" y2="180" stroke="#7cc4ff" stroke-width="1.5"/>
    <rect x="300" y="140" width="80" height="80" rx="6" fill="none" stroke="#a78bfa" stroke-width="1.5"/>
    <text x="340" y="185" font-size="11" text-anchor="middle" fill="#a78bfa">GBM</text>
    <line x1="380" y1="180" x2="420" y2="180" stroke="#a78bfa" stroke-width="1.5"/>
    <rect x="420" y="140" width="80" height="80" rx="6" fill="none" stroke="#ffb070" stroke-width="1.5"/>
    <text x="460" y="180" font-size="10" text-anchor="middle" fill="#ffb070">LSM</text>
    <text x="460" y="195" font-size="10" text-anchor="middle" fill="#ffb070">decide</text>
  </g>
  <text x="60" y="70" font-family="'Inter', sans-serif" font-size="14" fill="#9aa3b2" font-weight="500">Pipeline — SystemVerilog · Q16.16</text>
  <text x="60" y="95" font-family="'Inter', sans-serif" font-size="22" fill="#e6e9ef" font-weight="700">QMC-LSM on FPGA</text>
  <text x="60" y="300" font-family="'JetBrains Mono', monospace" font-size="11" fill="#6b7488">[placeholder — replace with screenshot]</text>
</svg>
